<svg xmlns="http://www.w3.org/2000/svg" viewBox="110 82 380 444" fill="none">
  <!-- 그냥 마스코트 (책 읽는 고양이). 선 색 currentColor -->
  <g stroke="currentColor" stroke-linecap="round" stroke-linejoin="round" fill="none">
    <path stroke-width="20.52" d="M302 147.849C323.236 114.635 344.56 102.76 370.826 90.7687C389.4 110.74 398.52 127.08 404.6 162.42"/>
    <path stroke-width="20.52" d="M302.069 147.849C280.833 114.635 257.92 100.86 233.243 90.7687C214.22 112.64 207.76 125.56 200.54 163.94"/>
    <path stroke-width="20.52" d="M404.98 163.18C442.22 185.98 448.3 212.96 450.96 257.04C450.96 322.4 387.12 348.24 302 348.24C216.88 348.24 152.28 322.4 152.28 257.04C152.28 211.82 162.16 189.78 199.02 164.7"/>
    <path stroke-width="14.44" d="M324.596 229.302C330.98 239.311 346.057 241.237 354.751 233.152"/>
    <path stroke-width="14.44" d="M248.489 233.154C257.184 241.237 272.261 239.311 278.645 229.302"/>
    <path stroke-width="14.44" d="M416.281 245.916C444.763 243.229 460.101 245.989 482.12 254"/>
    <path stroke-width="14.44" d="M416.76 270.316C440.688 269.955 452.975 273.917 470.038 283.6"/>
    <path stroke-width="14.44" d="M184.442 246.092C155.959 243.404 140.621 246.164 118.602 254.176"/>
    <path stroke-width="14.44" d="M183.962 270.493C160.034 270.132 147.747 274.092 130.684 283.776"/>
    <path stroke-width="20" d="M162 392H279.991L300.413 412.422L320.834 392H438.825V498.646H320.834L300.413 518.5L279.991 498.646H162V392Z"/>
    <path stroke-width="14.44" d="M300 412L300 471"/>
    <path stroke-width="14.44" d="M267 431H200"/>
    <path stroke-width="14.44" d="M267 461H200"/>
    <path stroke-width="14.44" d="M404 431H337"/>
    <path stroke-width="14.44" d="M404 461H337"/>
  </g>
</svg>
